<svg width="155" height="30" viewBox="0 0 155 30" fill="none" xmlns="http://www.w3.org/2000/svg">
<circle cx="30" cy="15" r="15" fill="#5175FF"/>
<circle cx="15" cy="15" r="15" fill="#5175FF"/>
<mask id="mask0_0_1224" style="mask-type:alpha" maskUnits="userSpaceOnUse" x="0" y="0" width="30" height="30">
<circle cx="15" cy="15" r="15" fill="white"/>
</mask>
<g mask="url(#mask0_0_1224)">
<circle opacity="0.323544" cx="30" cy="15" r="15" fill="#B4C4FF"/>
</g>
<path fill-rule="evenodd" clip-rule="evenodd" d="M124.312 6H121.004V23.4167H124.312V6ZM72.9502 14.9345V23.4167H69.6417V14.9345H67.7463V12.1071H69.6417V10.5804C69.6417 9.66052 69.8447 8.87639 70.2506 8.22798C70.6565 7.57956 71.1926 7.08383 71.8589 6.74077C72.5252 6.39772 73.2451 6.22619 74.0186 6.22619C74.5241 6.22619 75.0353 6.30159 75.5522 6.45238C76.0692 6.60317 76.5727 6.8369 77.0629 7.15357L75.7877 9.4494C75.5963 9.29107 75.3933 9.18552 75.1789 9.13274C74.9644 9.07996 74.7691 9.05357 74.593 9.05357C74.1028 9.05357 73.7065 9.21379 73.404 9.53423C73.1015 9.85466 72.9502 10.3504 72.9502 11.0214V12.1071H75.7418V14.9345H72.9502ZM60.1298 23.6429C61.3093 23.6429 62.3585 23.3884 63.2775 22.8795C64.1965 22.3705 64.9222 21.6731 65.4544 20.7872C65.9867 19.9013 66.2528 18.8929 66.2528 17.7619C66.2528 16.631 65.9867 15.6225 65.4544 14.7366C64.9222 13.8507 64.1965 13.1533 63.2775 12.6443C62.3585 12.1354 61.3093 11.881 60.1298 11.881C58.9504 11.881 57.8993 12.1354 56.9764 12.6443C56.0536 13.1533 55.326 13.8507 54.7938 14.7366C54.2615 15.6225 53.9954 16.631 53.9954 17.7619C53.9954 18.8929 54.2615 19.9013 54.7938 20.7872C55.326 21.6731 56.0536 22.3705 56.9764 22.8795C57.8993 23.3884 58.9504 23.6429 60.1298 23.6429ZM60.1298 20.8155C59.2874 20.8155 58.5905 20.5252 58.0391 19.9446C57.4877 19.3641 57.2119 18.6365 57.2119 17.7619C57.2119 16.8873 57.4877 16.1597 58.0391 15.5792C58.5905 14.9986 59.2874 14.7083 60.1298 14.7083C60.9723 14.7083 61.6692 14.9986 62.2206 15.5792C62.772 16.1597 63.0477 16.8873 63.0477 17.7619C63.0477 18.6365 62.772 19.3641 62.2206 19.9446C61.6692 20.5252 60.9723 20.8155 60.1298 20.8155ZM83.4156 23.4167V14.9345H86.2071V12.1071H83.4156V11.0214C83.4156 10.3504 83.5669 9.85466 83.8694 9.53423C84.1719 9.21379 84.5682 9.05357 85.0584 9.05357C85.2345 9.05357 85.4298 9.07996 85.6442 9.13274C85.8587 9.18552 86.0616 9.29107 86.2531 9.4494L87.5282 7.15357C87.0381 6.8369 86.5345 6.60317 86.0176 6.45238C85.5006 6.30159 84.9894 6.22619 84.484 6.22619C83.7105 6.22619 82.9906 6.39772 82.3243 6.74077C81.658 7.08383 81.1219 7.57956 80.716 8.22798C80.3101 8.87639 80.1071 9.66052 80.1071 10.5804V12.1071H78.2116V14.9345H80.1071V23.4167H83.4156ZM92.1693 9.57381C91.8323 9.90556 91.3881 10.0714 90.8367 10.0714C90.2853 10.0714 89.8411 9.90556 89.5041 9.57381C89.1672 9.24206 88.9987 8.80476 88.9987 8.2619C88.9987 7.71905 89.1672 7.28175 89.5041 6.95C89.8411 6.61825 90.2853 6.45238 90.8367 6.45238C91.3881 6.45238 91.8323 6.61825 92.1693 6.95C92.5063 7.28175 92.6748 7.71905 92.6748 8.2619C92.6748 8.80476 92.5063 9.24206 92.1693 9.57381ZM92.491 12.1071H89.1825V23.4167H92.491V12.1071ZM103.364 23.2018C102.587 23.4958 101.742 23.6429 100.831 23.6429C99.6134 23.6429 98.5278 23.3884 97.5743 22.8795C96.6208 22.3705 95.8684 21.6731 95.317 20.7872C94.7656 19.9013 94.4898 18.8929 94.4898 17.7619C94.4898 16.631 94.7656 15.6225 95.317 14.7366C95.8684 13.8507 96.6208 13.1533 97.5743 12.6443C98.5278 12.1354 99.6134 11.881 100.831 11.881C101.742 11.881 102.587 12.028 103.364 12.322C104.142 12.6161 104.81 13.027 105.369 13.5548L103.037 15.7149C102.485 15.0438 101.75 14.7083 100.831 14.7083C99.9887 14.7083 99.2917 14.9986 98.7403 15.5792C98.1889 16.1597 97.9132 16.8873 97.9132 17.7619C97.9132 18.6365 98.1889 19.3641 98.7403 19.9446C99.2917 20.5252 99.9887 20.8155 100.831 20.8155C101.75 20.8155 102.485 20.48 103.037 19.8089L105.369 21.969C104.81 22.4968 104.142 22.9077 103.364 23.2018ZM113.226 23.6429C114.023 23.6429 114.856 23.5147 115.725 23.2583C116.594 23.002 117.473 22.5308 118.361 21.8446L116.363 19.4923C115.934 19.8919 115.457 20.218 114.932 20.4705C114.408 20.7231 113.747 20.8494 112.951 20.8494C112.208 20.8494 111.559 20.6534 111.004 20.2613C110.448 19.8692 110.067 19.3603 109.861 18.7345H118.821V17.7506C118.821 16.6121 118.561 15.6018 118.04 14.7196C117.519 13.8375 116.809 13.1438 115.909 12.6387C115.009 12.1335 113.981 11.881 112.824 11.881C111.66 11.881 110.621 12.1354 109.705 12.6443C108.79 13.1533 108.068 13.8469 107.54 14.7253C107.012 15.6037 106.747 16.6046 106.747 17.728C106.747 18.8665 107.023 19.8824 107.574 20.7759C108.126 21.6693 108.888 22.3705 109.861 22.8795C110.833 23.3884 111.955 23.6429 113.226 23.6429ZM109.792 16.925H115.421C115.26 16.2615 114.93 15.7262 114.433 15.319C113.935 14.9119 113.337 14.7083 112.641 14.7083C111.936 14.7083 111.325 14.9157 110.808 15.3304C110.291 15.745 109.952 16.2766 109.792 16.925ZM130.102 9.57381C129.765 9.90556 129.321 10.0714 128.769 10.0714C128.218 10.0714 127.774 9.90556 127.437 9.57381C127.1 9.24206 126.931 8.80476 126.931 8.2619C126.931 7.71905 127.1 7.28175 127.437 6.95C127.774 6.61825 128.218 6.45238 128.769 6.45238C129.321 6.45238 129.765 6.61825 130.102 6.95C130.439 7.28175 130.607 7.71905 130.607 8.2619C130.607 8.80476 130.439 9.24206 130.102 9.57381ZM140.82 23.2244C140.093 23.5034 139.377 23.6429 138.672 23.6429C137.309 23.6429 136.261 23.2828 135.53 22.5628C134.799 21.8428 134.433 20.8117 134.433 19.4696V14.9345H132.537V12.1071H134.433V9.27976H137.741V12.1071H140.533V14.9345H137.741V19.0964C137.741 19.6317 137.916 20.0521 138.264 20.3574C138.613 20.6628 139.055 20.8155 139.591 20.8155C139.989 20.8155 140.399 20.7288 140.82 20.5554V23.2244ZM149.022 23.6429C149.819 23.6429 150.652 23.5147 151.521 23.2583C152.39 23.002 153.269 22.5308 154.157 21.8446L152.159 19.4923C151.73 19.8919 151.253 20.218 150.728 20.4705C150.204 20.7231 149.543 20.8494 148.747 20.8494C148.004 20.8494 147.355 20.6534 146.8 20.2613C146.244 19.8692 145.863 19.3603 145.656 18.7345H154.617V17.7506C154.617 16.6121 154.357 15.6018 153.836 14.7196C153.315 13.8375 152.605 13.1438 151.705 12.6387C150.805 12.1335 149.777 11.881 148.62 11.881C147.456 11.881 146.417 12.1354 145.501 12.6443C144.586 13.1533 143.864 13.8469 143.336 14.7253C142.808 15.6037 142.543 16.6046 142.543 17.728C142.543 18.8665 142.819 19.8824 143.37 20.7759C143.922 21.6693 144.684 22.3705 145.656 22.8795C146.629 23.3884 147.751 23.6429 149.022 23.6429ZM145.588 16.925H151.217C151.056 16.2615 150.726 15.7262 150.229 15.319C149.731 14.9119 149.133 14.7083 148.437 14.7083C147.732 14.7083 147.121 14.9157 146.604 15.3304C146.087 15.745 145.748 16.2766 145.588 16.925ZM127.115 23.4167H130.424V12.1071H127.115V23.4167Z" fill="#25293A"/>
</svg>
